<mxfile host="app.diagrams.net" agent="Mozilla/5.0 (Windows NT 10.0; Win64; x64) AppleWebKit/537.36 (KHTML, like Gecko) Chrome/131.0.0.0 Safari/537.36" version="24.8.4" pages="2">
  <diagram name="ページ1" id="9gO4ta2pB35e7MM1lKB7">
    <mxGraphModel dx="1434" dy="738" grid="1" gridSize="10" guides="1" tooltips="1" connect="1" arrows="1" fold="1" page="1" pageScale="1" pageWidth="827" pageHeight="1169" math="0" shadow="0">
      <root>
        <mxCell id="0" />
        <mxCell id="1" parent="0" />
        <mxCell id="ZR5iMcOiOwSX8f7lmPJv-1" value="a-alsok-jokaban" style="rounded=0;whiteSpace=wrap;html=1;" vertex="1" parent="1">
          <mxGeometry x="354" y="180" width="120" height="60" as="geometry" />
        </mxCell>
        <mxCell id="ZR5iMcOiOwSX8f7lmPJv-3" style="edgeStyle=orthogonalEdgeStyle;rounded=0;orthogonalLoop=1;jettySize=auto;html=1;entryX=0.5;entryY=0;entryDx=0;entryDy=0;" edge="1" parent="1" source="ZR5iMcOiOwSX8f7lmPJv-2" target="ZR5iMcOiOwSX8f7lmPJv-1">
          <mxGeometry relative="1" as="geometry" />
        </mxCell>
        <mxCell id="ZR5iMcOiOwSX8f7lmPJv-15" style="edgeStyle=orthogonalEdgeStyle;rounded=0;orthogonalLoop=1;jettySize=auto;html=1;" edge="1" parent="1" source="ZR5iMcOiOwSX8f7lmPJv-2">
          <mxGeometry relative="1" as="geometry">
            <mxPoint x="520" y="320" as="targetPoint" />
          </mxGeometry>
        </mxCell>
        <mxCell id="ZR5iMcOiOwSX8f7lmPJv-2" value="&lt;div&gt;JAC&lt;/div&gt;サーバ" style="rounded=0;whiteSpace=wrap;html=1;" vertex="1" parent="1">
          <mxGeometry x="354" y="30" width="120" height="60" as="geometry" />
        </mxCell>
        <mxCell id="ZR5iMcOiOwSX8f7lmPJv-11" style="edgeStyle=orthogonalEdgeStyle;rounded=0;orthogonalLoop=1;jettySize=auto;html=1;" edge="1" parent="1" source="ZR5iMcOiOwSX8f7lmPJv-4" target="ZR5iMcOiOwSX8f7lmPJv-5">
          <mxGeometry relative="1" as="geometry" />
        </mxCell>
        <mxCell id="ZR5iMcOiOwSX8f7lmPJv-16" style="edgeStyle=orthogonalEdgeStyle;rounded=0;orthogonalLoop=1;jettySize=auto;html=1;exitX=0.25;exitY=0;exitDx=0;exitDy=0;entryX=0.5;entryY=1;entryDx=0;entryDy=0;" edge="1" parent="1" source="ZR5iMcOiOwSX8f7lmPJv-4" target="ZR5iMcOiOwSX8f7lmPJv-1">
          <mxGeometry relative="1" as="geometry" />
        </mxCell>
        <mxCell id="ZR5iMcOiOwSX8f7lmPJv-4" value="綜合警備&lt;div&gt;PC&lt;/div&gt;" style="rounded=0;whiteSpace=wrap;html=1;" vertex="1" parent="1">
          <mxGeometry x="354" y="330" width="226" height="60" as="geometry" />
        </mxCell>
        <mxCell id="ZR5iMcOiOwSX8f7lmPJv-5" value="パトライト" style="rounded=0;whiteSpace=wrap;html=1;" vertex="1" parent="1">
          <mxGeometry x="407" y="480" width="120" height="60" as="geometry" />
        </mxCell>
        <mxCell id="ZR5iMcOiOwSX8f7lmPJv-12" value="LAN線でつながっている" style="text;html=1;align=center;verticalAlign=middle;whiteSpace=wrap;rounded=0;" vertex="1" parent="1">
          <mxGeometry x="474" y="430" width="150" height="30" as="geometry" />
        </mxCell>
        <mxCell id="ZR5iMcOiOwSX8f7lmPJv-14" value="https://a-alsok-jokaban.jp/&lt;div&gt;このURLにはアクセスできる権限がある&lt;/div&gt;" style="text;html=1;align=center;verticalAlign=middle;whiteSpace=wrap;rounded=0;" vertex="1" parent="1">
          <mxGeometry x="150" y="260" width="224" height="50" as="geometry" />
        </mxCell>
        <mxCell id="ZR5iMcOiOwSX8f7lmPJv-17" value="&lt;div&gt;jacサーバからAPIを直接飛ばす&lt;/div&gt;http://{$setting_ip-&amp;gt;setting_value}/api/control?alert=200000&lt;div&gt;綜合警備のHTTP通信にブロックされる&lt;/div&gt;" style="text;html=1;align=center;verticalAlign=middle;whiteSpace=wrap;rounded=0;" vertex="1" parent="1">
          <mxGeometry x="530" y="190" width="330" height="65" as="geometry" />
        </mxCell>
        <mxCell id="ZR5iMcOiOwSX8f7lmPJv-18" value="&lt;div&gt;このURLには誰でもアクセスできるようにしてある&lt;/div&gt;https://a-alsok-jokaban.jp/" style="text;html=1;align=center;verticalAlign=middle;whiteSpace=wrap;rounded=0;" vertex="1" parent="1">
          <mxGeometry x="100" y="110" width="294" height="50" as="geometry" />
        </mxCell>
      </root>
    </mxGraphModel>
  </diagram>
  <diagram id="Vg7ep2xLxDltqJpmBqHe" name="ページ2">
    <mxGraphModel dx="1434" dy="738" grid="1" gridSize="10" guides="1" tooltips="1" connect="1" arrows="1" fold="1" page="1" pageScale="1" pageWidth="827" pageHeight="1169" math="0" shadow="0">
      <root>
        <mxCell id="0" />
        <mxCell id="1" parent="0" />
        <mxCell id="zwPLGFg6yalbcnLuPa_A-16" style="edgeStyle=orthogonalEdgeStyle;rounded=0;orthogonalLoop=1;jettySize=auto;html=1;entryX=0;entryY=0.5;entryDx=0;entryDy=0;" edge="1" parent="1" source="zwPLGFg6yalbcnLuPa_A-1" target="zwPLGFg6yalbcnLuPa_A-15">
          <mxGeometry relative="1" as="geometry" />
        </mxCell>
        <mxCell id="zwPLGFg6yalbcnLuPa_A-1" value="a-alsok-jokaban" style="rounded=0;whiteSpace=wrap;html=1;" vertex="1" parent="1">
          <mxGeometry x="354" y="180" width="120" height="60" as="geometry" />
        </mxCell>
        <mxCell id="zwPLGFg6yalbcnLuPa_A-2" style="edgeStyle=orthogonalEdgeStyle;rounded=0;orthogonalLoop=1;jettySize=auto;html=1;entryX=0.5;entryY=0;entryDx=0;entryDy=0;" edge="1" parent="1" source="zwPLGFg6yalbcnLuPa_A-4" target="zwPLGFg6yalbcnLuPa_A-1">
          <mxGeometry relative="1" as="geometry" />
        </mxCell>
        <mxCell id="zwPLGFg6yalbcnLuPa_A-4" value="&lt;div&gt;JAC&lt;/div&gt;サーバ" style="rounded=0;whiteSpace=wrap;html=1;" vertex="1" parent="1">
          <mxGeometry x="354" y="30" width="120" height="60" as="geometry" />
        </mxCell>
        <mxCell id="zwPLGFg6yalbcnLuPa_A-5" style="edgeStyle=orthogonalEdgeStyle;rounded=0;orthogonalLoop=1;jettySize=auto;html=1;" edge="1" parent="1" source="zwPLGFg6yalbcnLuPa_A-7" target="zwPLGFg6yalbcnLuPa_A-8">
          <mxGeometry relative="1" as="geometry">
            <Array as="points">
              <mxPoint x="552" y="510" />
              <mxPoint x="552" y="510" />
            </Array>
          </mxGeometry>
        </mxCell>
        <mxCell id="zwPLGFg6yalbcnLuPa_A-6" style="edgeStyle=orthogonalEdgeStyle;rounded=0;orthogonalLoop=1;jettySize=auto;html=1;entryX=0.5;entryY=1;entryDx=0;entryDy=0;" edge="1" parent="1" target="zwPLGFg6yalbcnLuPa_A-1">
          <mxGeometry relative="1" as="geometry">
            <mxPoint x="453" y="330" as="sourcePoint" />
            <Array as="points">
              <mxPoint x="454" y="330" />
              <mxPoint x="454" y="285" />
              <mxPoint x="414" y="285" />
            </Array>
          </mxGeometry>
        </mxCell>
        <mxCell id="zwPLGFg6yalbcnLuPa_A-7" value="綜合警備&lt;div&gt;PC&lt;/div&gt;" style="rounded=0;whiteSpace=wrap;html=1;" vertex="1" parent="1">
          <mxGeometry x="354" y="330" width="396" height="60" as="geometry" />
        </mxCell>
        <mxCell id="zwPLGFg6yalbcnLuPa_A-8" value="パトライト" style="rounded=0;whiteSpace=wrap;html=1;" vertex="1" parent="1">
          <mxGeometry x="520" y="555" width="120" height="60" as="geometry" />
        </mxCell>
        <mxCell id="zwPLGFg6yalbcnLuPa_A-9" value="LAN線でつながっている" style="text;html=1;align=center;verticalAlign=middle;whiteSpace=wrap;rounded=0;" vertex="1" parent="1">
          <mxGeometry x="394" y="470" width="150" height="30" as="geometry" />
        </mxCell>
        <mxCell id="zwPLGFg6yalbcnLuPa_A-10" value="https://a-alsok-jokaban.jp/&lt;div&gt;このURLにはアクセスできる権限がある&lt;/div&gt;" style="text;html=1;align=center;verticalAlign=middle;whiteSpace=wrap;rounded=0;" vertex="1" parent="1">
          <mxGeometry x="150" y="260" width="224" height="50" as="geometry" />
        </mxCell>
        <mxCell id="zwPLGFg6yalbcnLuPa_A-12" value="&lt;div&gt;このURLには誰でもアクセスできるようにしてある&lt;/div&gt;https://a-alsok-jokaban.jp/" style="text;html=1;align=center;verticalAlign=middle;whiteSpace=wrap;rounded=0;" vertex="1" parent="1">
          <mxGeometry x="100" y="110" width="294" height="50" as="geometry" />
        </mxCell>
        <mxCell id="zwPLGFg6yalbcnLuPa_A-15" value="a-alsok-jokaban/patlite" style="rounded=0;whiteSpace=wrap;html=1;" vertex="1" parent="1">
          <mxGeometry x="590" y="180" width="180" height="60" as="geometry" />
        </mxCell>
        <mxCell id="zwPLGFg6yalbcnLuPa_A-20" value="patlite専用ページにアクセスしてもらう&lt;div&gt;アクセスしているパソコンからpatliteのAPIを送るようにする&lt;/div&gt;" style="text;html=1;align=center;verticalAlign=middle;whiteSpace=wrap;rounded=0;" vertex="1" parent="1">
          <mxGeometry x="780" y="180" width="330" height="50" as="geometry" />
        </mxCell>
        <mxCell id="zwPLGFg6yalbcnLuPa_A-22" value="報告がありませんでした&lt;div&gt;アラートをお願いします。&lt;/div&gt;" style="text;html=1;align=center;verticalAlign=middle;whiteSpace=wrap;rounded=0;" vertex="1" parent="1">
          <mxGeometry x="450" y="130" width="180" height="50" as="geometry" />
        </mxCell>
        <mxCell id="zwPLGFg6yalbcnLuPa_A-25" value="" style="endArrow=classic;html=1;rounded=0;exitX=0.25;exitY=1;exitDx=0;exitDy=0;entryX=0.71;entryY=-0.017;entryDx=0;entryDy=0;entryPerimeter=0;" edge="1" parent="1" source="zwPLGFg6yalbcnLuPa_A-15" target="zwPLGFg6yalbcnLuPa_A-7">
          <mxGeometry width="50" height="50" relative="1" as="geometry">
            <mxPoint x="640" y="320" as="sourcePoint" />
            <mxPoint x="690" y="270" as="targetPoint" />
          </mxGeometry>
        </mxCell>
        <mxCell id="UKAqXQLKrFg3o9ZUslS5-1" value="&lt;div&gt;アラートがありました。&lt;/div&gt;&lt;div&gt;以下のURLにfetchで内部的にアクセスしてください。&lt;/div&gt;http://{$setting_ip-&amp;gt;setting_value}/api/control?alert=200000" style="text;html=1;align=center;verticalAlign=middle;whiteSpace=wrap;rounded=0;" vertex="1" parent="1">
          <mxGeometry x="660" y="250" width="330" height="50" as="geometry" />
        </mxCell>
        <mxCell id="UKAqXQLKrFg3o9ZUslS5-2" value="" style="endArrow=classic;html=1;rounded=0;exitX=0.596;exitY=1.05;exitDx=0;exitDy=0;exitPerimeter=0;" edge="1" parent="1" source="zwPLGFg6yalbcnLuPa_A-7">
          <mxGeometry width="50" height="50" relative="1" as="geometry">
            <mxPoint x="590" y="480" as="sourcePoint" />
            <mxPoint x="590" y="550" as="targetPoint" />
          </mxGeometry>
        </mxCell>
        <mxCell id="UKAqXQLKrFg3o9ZUslS5-3" value="綜合警備のPCからAPIにアクセス&lt;br&gt;&lt;div&gt;&lt;span style=&quot;background-color: initial;&quot;&gt;http://{$setting_ip-&amp;gt;setting_value}/api/control?alert=200000&lt;/span&gt;&lt;/div&gt;&lt;div&gt;&lt;span style=&quot;color: rgba(0, 0, 0, 0); font-family: monospace; font-size: 0px; text-align: start; text-wrap-mode: nowrap;&quot;&gt;アラートを鳴らす%3CmxGraphModel%3E%3Croot%3E%3CmxCell%20id%3D%220%22%2F%3E%3CmxCell%20id%3D%221%22%20parent%3D%220%22%2F%3E%3CmxCell%20id%3D%222%22%20value%3D%22%26lt%3Bdiv%26gt%3B%E3%82%A2%E3%83%A9%E3%83%BC%E3%83%88%E3%81%8C%E3%81%82%E3%82%8A%E3%81%BE%E3%81%97%E3%81%9F%E3%80%82%26lt%3B%2Fdiv%26gt%3B%26lt%3Bdiv%26gt%3B%E4%BB%A5%E4%B8%8B%E3%81%AEURL%E3%81%ABfetch%E3%81%A7%E5%86%85%E9%83%A8%E7%9A%84%E3%81%AB%E3%82%A2%E3%82%AF%E3%82%BB%E3%82%B9%E3%81%97%E3%81%A6%E3%81%8F%E3%81%A0%E3%81%95%E3%81%84%E3%80%82%26lt%3B%2Fdiv%26gt%3Bhttp%3A%2F%2F%7B%24setting_ip-%26amp%3Bgt%3Bsetting_value%7D%2Fapi%2Fcontrol%3Falert%3D200000%22%20style%3D%22text%3Bhtml%3D1%3Balign%3Dcenter%3BverticalAlign%3Dmiddle%3BwhiteSpace%3Dwrap%3Brounded%3D0%3B%22%20vertex%3D%221%22%20parent%3D%221%22%3E%3CmxGeometry%20x%3D%22660%22%20y%3D%22250%22%20width%3D%22330%22%20height%3D%2250%22%20as%3D%22geometry%22%2F%3E%3C%2FmxCell%3E%3C%2Froot%3E%3C%2FmxGraphModel%3E&lt;/span&gt;&lt;/div&gt;" style="text;html=1;align=center;verticalAlign=middle;whiteSpace=wrap;rounded=0;" vertex="1" parent="1">
          <mxGeometry x="620" y="440" width="330" height="90" as="geometry" />
        </mxCell>
      </root>
    </mxGraphModel>
  </diagram>
</mxfile>
